<svg width="170" height="170" style="fill: #fff;" xmlns="http://www.w3.org/2000/svg">
 <style type="text/css"/>

 <g>
  <title>background</title>
  <rect fill="none" id="canvas_background" height="172" width="172" y="-1" x="-1"/>
 </g>
 <g>
  <title>Layer 1</title>
  <g id="svg_1">
   <path id="svg_2" d="m149.8,73.9l-6.6,0c1,-6 1.6,-11.2 2,-15.2c0.5,-4.7 -3.2,-8.8 -8,-8.8l-118.8,0c-4.7,0 -8.4,4.1 -8,8.8c2.6,26.3 14.7,103.2 67.4,103.2c28.8,0 45.4,-22.9 55.1,-48l8.9,0c0,0 10,0 12,-6l8,-18c0,-8.4 -4.2,-16 -12,-16zm-44.9,69.6c-7.9,7 -16.8,10.4 -27.1,10.4s-19.2,-3.4 -27.1,-10.4c-6.9,-6.2 -13,-15.1 -18.1,-26.5c-9.4,-21.4 -13,-46.2 -14.2,-59l118.8,0l0,0c-1.3,12.9 -4.8,37.6 -14.2,59.1c-5.1,11.3 -11.2,20.2 -18.1,26.4zm41.6,-38.8c0,0.1 -0.1,0.2 -0.1,0.2c-0.8,0.5 -3,1 -4.6,1l-3.5,0l6.6,-24l4.9,0c2.5,0 3.6,3.5 3.9,6.5l-7.2,16.3z"/>
   <path id="svg_3" d="m65.8,31.9c0,0.2 0,0.5 0.1,0.7c0.1,0.5 0.1,1 0.2,1.5c0.2,0.9 0.4,1.7 0.6,2.5c0.5,1.5 1,2.7 1.4,3.5c0.2,0.4 0.4,0.7 0.5,0.9c0.1,0.2 0.2,0.3 0.2,0.3c0.2,0.3 0.6,0.6 1,0.5c0.5,-0.1 0.9,-0.6 0.8,-1.2l0,-0.1c0,0 -0.1,-0.5 -0.2,-1.3c-0.1,-0.8 -0.3,-2 -0.5,-3.4c-0.1,-0.7 -0.2,-1.4 -0.2,-2.2c0,-0.4 0,-0.8 0,-1.1c0,-0.2 0,-0.4 0,-0.7l0,-0.2c0,0 0,-0.1 0,-0.1l0,-0.2c0.1,-0.6 0.3,-1.1 0.7,-1.7c0.4,-0.6 1,-1.2 1.7,-2.2c0.3,-0.5 0.7,-1 1,-1.7c0.1,-0.3 0.2,-0.6 0.3,-1c0.1,-0.3 0.2,-0.7 0.2,-1c0,-0.2 0.1,-0.4 0.1,-0.5l0,-0.4l0,-0.4l0,-0.1l0,0l0,0l0,-0.1l0,-0.2c0,-0.5 -0.1,-1 -0.2,-1.5c-0.3,-2 -0.7,-3.7 -1.1,-5.1c-0.4,-1.5 -0.9,-2.6 -1.2,-3.5c-0.3,-0.8 -0.5,-1.3 -0.5,-1.3l0,0c-0.2,-0.4 -0.6,-0.6 -1,-0.6c-0.6,0.1 -0.9,0.6 -0.9,1.1c0,0 0.1,0.5 0.2,1.3c0.1,0.8 0.2,2.1 0.4,3.5c0.2,1.4 0.3,3.1 0.4,4.8c0,0.4 0,0.9 0,1.3c0,0.1 -0.1,1 -0.1,1.1c-0.1,0.2 -0.2,0.5 -0.3,0.8c-0.1,0.3 -0.3,0.6 -0.5,0.9c-0.5,0.6 -1.2,1.4 -1.9,2.4c-0.7,1.1 -1.1,2.5 -1.1,3.7l0,0.5c0,0.1 0,0.1 0,0.3l-0.1,0.2z"/>
   <path id="svg_4" d="m73.8,31.7l0,0.2c0,0.2 0,0.5 0.1,0.7c0.1,0.5 0.1,1 0.2,1.5c0.2,0.9 0.4,1.7 0.6,2.5c0.5,1.5 1,2.7 1.4,3.5c0.2,0.4 0.4,0.7 0.5,0.9c0.1,0.2 0.2,0.3 0.2,0.3c0.2,0.3 0.6,0.6 1,0.5c0.5,-0.1 0.9,-0.6 0.8,-1.2l0,-0.1c0,0 -0.1,-0.5 -0.2,-1.3c-0.1,-0.8 -0.3,-2 -0.5,-3.4c-0.1,-0.7 -0.2,-1.4 -0.2,-2.2c0,-0.4 0,-0.8 0,-1.1c0,-0.2 0,-0.4 0,-0.7l0,-0.2c0,0 0,-0.1 0,-0.1l0,-0.2c0.1,-0.6 0.3,-1.1 0.7,-1.7c0.4,-0.6 1,-1.2 1.7,-2.2c0.3,-0.5 0.7,-1 1,-1.7c0.1,-0.3 0.2,-0.6 0.3,-1c0.1,-0.3 0.2,-0.7 0.2,-1c0,-0.2 0.1,-0.4 0.1,-0.5l0,-0.4l0,-0.4l0,-0.1l0,0l0,0l0,-0.1l0,-0.2c0,-0.5 -0.1,-1 -0.2,-1.5c-0.3,-2 -0.7,-3.7 -1.1,-5.1c-0.4,-1.5 -0.9,-2.6 -1.2,-3.5c-0.3,-0.8 -0.5,-1.3 -0.5,-1.3l0,0c-0.2,-0.4 -0.6,-0.6 -1,-0.6c-0.6,0.1 -0.9,0.6 -0.9,1.1c0,0 0.1,0.5 0.2,1.3c0.1,0.8 0.2,2.1 0.4,3.5c0.2,1.4 0.3,3.1 0.4,4.8c0,0.4 0,0.9 0,1.3c0,0.1 -0.1,1 -0.1,1.1c-0.1,0.2 -0.2,0.5 -0.3,0.8c-0.1,0.3 -0.3,0.6 -0.5,0.9c-0.5,0.6 -1.2,1.4 -1.9,2.4c-0.7,1.1 -1.1,2.5 -1.1,3.7l0,0.5c-0.1,0.2 -0.1,0.2 -0.1,0.3z"/>
   <path id="svg_5" d="m81.8,31.7l0,0.2c0,0.2 0,0.5 0.1,0.7c0.1,0.5 0.1,1 0.2,1.5c0.2,0.9 0.4,1.7 0.6,2.5c0.5,1.5 1,2.7 1.4,3.5c0.2,0.4 0.4,0.7 0.5,0.9c0.1,0.2 0.2,0.3 0.2,0.3c0.2,0.3 0.6,0.6 1,0.5c0.5,-0.1 0.9,-0.6 0.8,-1.2l0,-0.1c0,0 -0.1,-0.5 -0.2,-1.3c-0.1,-0.8 -0.3,-2 -0.5,-3.4c-0.1,-0.7 -0.2,-1.4 -0.2,-2.2c0,-0.4 0,-0.8 0,-1.1c0,-0.2 0,-0.4 0,-0.7l0,-0.2c0,0 0,-0.1 0,-0.1l0,-0.2c0.1,-0.6 0.3,-1.1 0.7,-1.7c0.4,-0.6 1,-1.2 1.7,-2.2c0.3,-0.5 0.7,-1 1,-1.7c0.1,-0.3 0.2,-0.6 0.3,-1c0.1,-0.3 0.2,-0.7 0.2,-1c0,-0.2 0.1,-0.4 0.1,-0.5l0,-0.4l0,-0.4l0,-0.1l0,0l0,0l0,-0.1l0,-0.2c0,-0.5 -0.1,-1 -0.2,-1.5c-0.3,-2 -0.7,-3.7 -1.1,-5.1c-0.4,-1.5 -0.9,-2.6 -1.2,-3.5c-0.3,-0.8 -0.5,-1.3 -0.5,-1.3l0,0c-0.2,-0.4 -0.6,-0.6 -1,-0.6c-0.6,0.1 -0.9,0.6 -0.9,1.1c0,0 0.1,0.5 0.2,1.3c0.1,0.8 0.2,2.1 0.4,3.5c0.2,1.4 0.3,3.1 0.4,4.8c0,0.4 0,0.9 0,1.3c0,0.1 -0.1,1 -0.1,1.1c-0.1,0.2 -0.2,0.5 -0.3,0.8c-0.1,0.3 -0.3,0.6 -0.5,0.9c-0.5,0.6 -1.2,1.4 -1.9,2.4c-0.7,1.1 -1.1,2.5 -1.1,3.7l0,0.5c-0.1,0.2 -0.1,0.2 -0.1,0.3z"/>
   <path id="svg_6" d="m115.9,97.9l-76.2,0c-2.7,0 -4.7,2.7 -3.8,5.3c0.8,2.2 1.6,4.4 2.4,6.6c9.7,24.3 22.6,36.1 39.5,36.1s29.8,-11.8 39.5,-36.1c0.9,-2.2 1.7,-4.4 2.4,-6.6c0.9,-2.6 -1,-5.3 -3.8,-5.3z"/>
  </g>
 </g>
</svg>